<svg class="leni-footer" xmlns="http://www.w3.org/2000/svg" viewBox="-30 0 495 264"><g class="cls-1"><g><path class="cls-2" d="M400 253.57v-38.52a5 5 0 015-5h18.86a5 5 0 015 5v38.52"></path><path class="cls-3" d="M414.41 180.51V16.75s0-16.26 15.48-16.14c0 0 17.12-2.12 14.72 22.23"></path><circle class="cls-4" cx="444.08" cy="45.92" r="18.36"></circle><path class="cls-5" d="M436.64 20.79h14.87v6.76h-14.87z"></path><path class="cls-3" stroke="#fcf8e6" d="M413.87 180.2V16.45S413.87.18 398.39.3c0 0-17.12-2.12-14.72 22.23"></path><circle class="cls-4" cx="384.2" cy="45.61" r="18.36"></circle><path class="cls-5" transform="rotate(-180 384.2 23.87)" d="M376.76 20.49h14.87v6.76h-14.87z"></path><path class="cls-2" d="M393.33 254.34h42.17v9.12h-42.17z"></path><path class="cls-60" d="M409.37 144.47h10.09v65.61h-10.09z"></path><g id="banquito"><path class="cls-5" transform="rotate(90 142.765 235.385)" d="M113.7 230.55h58.13v9.69H113.7z"></path><path class="cls-5" transform="rotate(90 239.32 235.39)" d="M210.25 230.55h58.13v9.69h-58.13z"></path><path class="cls-5" d="M103.21 235.39h175.65v5.42H103.21zM115.5 196.31h151.09V206H115.5zM115.5 214.01h151.09v9.69H115.5z"></path></g><g id="planta1b"><path class="cls-7" d="M332.67 260.78s-2.77-25.9 19.85-104.78c0 0 26.06 61.65-19.85 104.78z"></path><path class="cls-7" d="M337.27 263.79s3.4-19.36 32.29-71.33c0 0 14.44 56.84-32.29 71.33zM333.4 261.32s3.83-25.61-15.55-105.38c0 0-28.56 60.4 15.55 105.38z"></path><path class="cls-7" d="M337 263.79s-3.86-19.36-34-70.62c0 0-14.29 53.9 34 70.62z"></path><path class="cls-7" d="M337.27 263.79s-30.59-32.6-2.73-135.9c0 0 31.64 106.29 2.73 135.9z"></path></g><path class="cls-6" d="M37.98 254.69h6.05v9.6h-6.05zM76.63 254.69h6.05v9.6h-6.05z"></path>
            <g class="buzon"><path class="cls-2" d="M60.33 176.31C48 176.31 38 184.77 38 195.21v57.21h44.7v-57.21c-.02-10.44-10.03-18.9-22.37-18.9z"></path><path class="cls-5" d="M37.98 249.4h44.7v8.72h-44.7z"></path><rect class="cls-6" x="46.06" y="196.99" width="28.53" height="5.67" rx="2.84"></rect><path class="cls-5" d="M46.91 216.65h26.84v22.7H46.91z"></path></g>
            <g id="deco5b"><circle id="sky-circle" class="cls-8" cx="260.17" cy="26.63" r="2.41"></circle><circle id="sky-circle-2" class="cls-8" cx="239.75" cy="45" r="2.41"></circle><circle id="sky-circle-3" class="cls-8" cx="198.9" cy="45" r="2.41"></circle><circle id="sky-circle-4" class="cls-8" cx="219.33" cy="26.63" r="2.41"></circle><circle id="sky-circle-5" class="cls-8" cx="178.48" cy="26.63" r="2.41"></circle><circle id="sky-circle-6" class="cls-8" cx="158.06" cy="45" r="2.41"></circle><circle id="sky-circle-7" class="cls-8" cx="115.57" cy="45" r="2.41"></circle><circle id="sky-circle-8" class="cls-8" cx="137.64" cy="26.63" r="2.41"></circle><circle id="sky-circle-9" class="cls-8" cx="96.79" cy="26.63" r="2.41"></circle></g>
            <g class="leni"><path class="cls-9" d="M165.79 200.74c-8.81-15.82-9.49-19.1-13.39-27.42-5.49-11.73-7.11-18.21-6.08-29.82 1.06-11.78 10.38-29.9 44.12-30.44 49.39-.81 41.63 43 40.46 47.42-6.44 24.26-18.07 40.13-19.52 40.13-15.51-.01-26.1-.01-45.59.13z"></path><path class="cls-10" d="M135.82 179.2c6.43-1.93 10.49 2 12.9 7.29s2.43 10.71 2.22 16.63-2.55 16.7 5.73 16.92c3.37.09 6-5.95 7.41-9.89 7-20-7.69-28.07-7.32-48.9.15-8.61 2.45-31.09 29.49-34.86 11.51-1.6 39.76 4.84 36.38 35.75-2.21 20.16-10.87 23.69-11.33 37.34-.28 8.37.6 8.78 1.83 14.09.69 3 7.73 14.43 15.79.82 5.26-8.9-1.1-11.14-1.65-19.06-.61-8.9 13-11.81 15.12-6.77 3.11 7.41-9.53 4.76-6.47 12.1 2.91 7 1.57 13.38-3.3 19.79-3.62 4.75-9.37 9.58-15.27 7.64-9.41-3.09-7.95-13.94-14.68-15.05 1.42 7.2 3.42 17.18-2.87 16.57-5.39-.2-2.48-3.91-3.22-9a6.43 6.43 0 00-.86-2.88c-1.72-2.13-5.1-.95-5.47 1.85s.65 5.66.29 8.46-7.67 3.58-6.61-1.87c.95-6.15 0-8.57-2.63-8.33-3.75.94-3.89 2.81-3.38 7.34.9 8-8.58 7-7.62 1 .19-7 1.31-6.35 1.5-13.36-2.55 5.88-6.57 11.54-12 14.22-1.48.73-8.91 2.12-12.59-3.27-4.49-6.57-3.55-14.51-3.48-22.9.14-17.8-10.23-9.21-12.18-13.72-2.14-2.99.97-6.92 4.27-7.95z"></path><path class="cls-11" d="M177.1 148.22c-1.15 4.08-.25 10.21 1.76 13.36s5.2 4.69 8.93 5.31c4.87.8 10.21.28 13.54-3.66 3.48-4.11 3.78-9.23 2.2-14.53-1.68-5.62-4.28-9-10.66-10.1-4.74-.83-13.87.53-15.77 9.62z"></path><path class="cls-8" d="M179.36 161.53s2.18 4 8.43 5.08c3.5.6 9.28.6 13.29-3.65 2.33-2.47 4-7.71 2.11-14.12 0 0 1.06 23.82-23.83 12.69z"></path><path class="cls-12" d="M174 170.82c12.71 7.19 28.24 2.9 33.69.59 1.73-.73 1.34 12.61-4 16.89a21.65 21.65 0 01-18.13 4.23c-6.28-1.37-11.17-4.7-12.88-12.21-.5-2.16-.61-10.42 1.32-9.5z"></path><path class="cls-11" d="M178.7 173.17c-.28 1.56-1 3.15-.38 4.5s2.35 2.34 3.66 1.84c1.47-.57 1.92-3.2 2.14-4.88M188.16 175.18c-.08 3.65.49 5.41 2.82 5.29 2.52-.18 2.85-3.63 2.85-5.36M198.19 174.44c0 2.44 0 4.87 2.64 4.87 2.8 0 2.8-3.72 2.8-6.14"></path><path class="cls-13" d="M205 186.82c1.4-1.68-9.56-.67-11.65-.75-7.88-.3-9.46.13-16.92 1.7 0 0 8.92 9.17 23 3.17a16.25 16.25 0 005.57-4.12z"></path><ellipse class="cls-14" cx="190.38" cy="154.13" rx="1.68" ry="1.82"></ellipse><path class="cls-15" d="M164.75 190.25s5.75-3.45 1.44-11.89c-1.29-2.52-4.81-4.79-7.23-3.61.04 0 3.74 10.71 5.79 15.5zM171 132s.59 4.23-1.54 6.79c-1.12 1.33-4.66 5.08-8.23 4.17A27.42 27.42 0 01171 132zM187 130.08c-.35 1.51 1.16 3.07 4.07 2 2.73-1 2.19-3.31 1.21-3.83-1.82-.92-4.82-.25-5.28 1.83zM221.9 149.49s-5.52.7-7.19-4.63a10.4 10.4 0 011.07-7.51s5.41 6.03 6.12 12.14zM217.14 168.32a8.5 8.5 0 00-.73 5.85 7.92 7.92 0 002.41 2.88 106.17 106.17 0 003.4-11.24c-2.98.19-4.05 1.08-5.08 2.51zM164.63 157.67a1.85 1.85 0 002.14 1.54 2 2 0 001.32-2.4 1.83 1.83 0 00-2.26-1.33 1.91 1.91 0 00-1.2 2.19M203.83 134.81a1.4 1.4 0 001.36 1.3 1.86 1.86 0 001.77-1 1.57 1.57 0 00-1.87-1.8 1.63 1.63 0 00-1.26 1.5zM147.93 185.77a4 4 0 01-3.38-1.3 4.31 4.31 0 01-.59-3.73s3.24 2.26 3.97 5.03zM161.81 216.62c.75 1 2.41.84 3.33 0a2.94 2.94 0 00.88-3c-.16-1.19-.73-1.7-1.89-2.39M151.26 217.12a1.87 1.87 0 00-.79 1.45 2 2 0 001.1 1.9 2 2 0 002.57-.51c-1.12-.67-2.46-1.26-2.88-2.57M216 218.79c-.94.63-2.78 1.29-3.54.41a3.33 3.33 0 01-.49-3.85 6.77 6.77 0 011.29-1.11 20.74 20.74 0 002.74 4.55zM226.11 218.77a2.69 2.69 0 002.44.9 1.56 1.56 0 001.69-1.83 5.59 5.59 0 00-.36-1.49c-.15-.46-.36-1.25-.78-1.4M227.69 197.93c.49-.39.86 0 1.44.15a1.75 1.75 0 011.2 1.11 3.45 3.45 0 01.19 1.31c-.08.53-.56 1.45-1.06 1.58"></path><path class="cls-16" d="M154.46 136.69c-.08.65-1.44.49-2 .12-.77-.54-.12-2 .21-2.55a32.86 32.86 0 018.72-10.13 9.77 9.77 0 011.76-1.1c1.65-.81 3.57-2 4.43-1.62.65.31 1.31.61 1.32 1.34 0 1-2.61 1.54-3.78 2-3 1.27-6.62 4.36-9.68 9.78-.35.69-.98 2.16-.98 2.16zM152 144.32a13.46 13.46 0 01.81-4.11c.12-.28.22-.66 0-.85a.54.54 0 00-.25-.09 5.86 5.86 0 00-1.51-.14.58.58 0 00-.41.11.83.83 0 00-.23.49 25.19 25.19 0 00-.49 3.36 1.09 1.09 0 000 .44 1 1 0 00.31.42 1.87 1.87 0 001.74.37"></path><path class="cls-17" d="M176.89 188a12.88 12.88 0 006.23 2.05c6.64.68 9.86-2.62 22.11-3.77 0 0-17.3-1.64-28.34 1.72z"></path><path class="cls-15" d="M150.42 206a3 3 0 01-2.7-2.7c0-2 3-2.92 3-2.92s-.18 4.1-.3 5.62zM165.78 204.83c-.9 0 13.2.15 23.46.57a118.84 118.84 0 0122.44 3.46 30.5 30.5 0 01-.61-5.12l-45.07.36s0-.46-.22.73zM177.67 224.89c0 5.38-2.19 6.07-4.4 5.76-3-.43-3-3.88-3-3.88 5.85 6.35 7.4-5.05 7.4-1.88zM190 220.12a67.51 67.51 0 01.55 7.91c-.08 2.84-7.67 3.58-6.61-1.87.06.12 4.34 7.84 6.06-6.04zM203.49 218.21c1.09 7.18 1.2 11.43-3.69 11.4-4.19 0-3-3.68-3.06-4.72 0 0 6.63 9.36 6.75-6.68z"></path><path class="cls-18" d="M211.76 200.6l-.36 3c-6.3.13-43.23 0-45.66 0-.1-.79.06-2.1-.14-2.94 0-.05 27.73.08 46.16-.06z"></path><path class="cls-15" d="M181 209.63a2.65 2.65 0 00.57 3.35 3.16 3.16 0 003.32.3 2.89 2.89 0 001.73-3.28 1.87 1.87 0 00-1.55-1.37c-.77-.17-3.14-.29-4.07 1zM195.64 209.84c.69.66 1.6.1 1.93-.73a1.33 1.33 0 00-1.31-1.73 1.54 1.54 0 00-.62 2.46zM169.93 209c.17 1.06 1.63 1.23 2.47 1.11a1.49 1.49 0 00.69-.2 1.31 1.31 0 00.46-1.14 2 2 0 00-1.8-1.88 1.8 1.8 0 00-1.82 2.11z"></path><path class="cls-16" d="M188.44 176.57s1.17-1.2 5.27-.9l-.08-.71-5.28.16a2.26 2.26 0 00.09 1.45zM178.42 175s1-1.16 5.33.43l.1-.92-5-1.24a2.59 2.59 0 00-.43 1.73zM198.59 176.37s.79-2.24 4.74-2.49v-.71l-4.83 1.14a7 7 0 00.09 2.06z"></path><path class="cls-19" d="M178.7 173.17c-.28 1.56-1 3.15-.38 4.5s2.35 2.34 3.66 1.84c1.47-.57 1.92-3.2 2.14-4.88M188.16 175.18c-.08 3.65.49 5.41 2.82 5.29 2.52-.18 2.85-3.63 2.85-5.36M198.19 174.44c0 2.44 0 4.87 2.64 4.87 2.8 0 2.8-3.72 2.8-6.14M205 186.82c1.4-1.68-9.56-.67-11.65-.75-7.88-.3-9.46.13-16.92 1.7 0 0 8.92 9.17 23 3.17a16.25 16.25 0 005.57-4.12z"></path><path class="cls-20" d="M231.47 155.4s-1.9 21.17-20.09 45.21c-.88 1.17-26.66-1.07-45.59.13-3-5.48-2.59-4.86-2.59-4.86 15.21 6.29 61.41 1.12 68.27-40.48z"></path><path class="cls-19" d="M165.79 200.74c-8.81-15.82-9.49-19.1-13.39-27.42-5.49-11.73-7.11-18.21-6.08-29.82 1.06-11.78 10.38-29.9 44.12-30.44 49.39-.81 41.63 43 40.46 47.42-6.44 24.26-18.07 40.13-19.52 40.13-15.51-.01-26.1-.01-45.59.13z"></path><path class="cls-19" d="M177.1 148.22c-1.15 4.08-.25 10.21 1.76 13.36s5.2 4.69 8.93 5.31c4.87.8 10.21.28 13.54-3.66 3.48-4.11 3.78-9.23 2.2-14.53-1.68-5.62-4.28-9-10.66-10.1-4.74-.83-13.87.53-15.77 9.62z"></path><path class="cls-19" d="M135.82 179.2c6.43-1.93 10.49 2 12.9 7.29s2.43 10.71 2.22 16.63-2.55 16.7 5.73 16.92c3.37.09 6-5.95 7.41-9.89 7-20-7.69-28.07-7.32-48.9.15-8.61 2.45-31.09 29.49-34.86 11.51-1.6 39.76 4.84 36.38 35.75-2.21 20.16-10.87 23.69-11.33 37.34-.28 8.37.6 8.78 1.83 14.09.69 3 7.73 14.43 15.79.82 5.26-8.9-1.1-11.14-1.65-19.06-.61-8.9 13-11.81 15.12-6.77 3.11 7.41-9.53 4.76-6.47 12.1 2.91 7 1.57 13.38-3.3 19.79-3.62 4.75-9.37 9.58-15.27 7.64-9.41-3.09-7.95-13.94-14.68-15.05 1.42 7.2 3.42 17.18-2.87 16.57-5.39-.2-2.48-3.91-3.22-9a6.43 6.43 0 00-.86-2.88c-1.72-2.13-5.1-.95-5.47 1.85s.65 5.66.29 8.46-7.67 3.58-6.61-1.87c.95-6.15 0-8.57-2.63-8.33-3.75.94-3.89 2.81-3.38 7.34.9 8-8.58 7-7.62 1 .19-7 1.31-6.35 1.5-13.36-2.55 5.88-6.57 11.54-12 14.22-1.48.73-8.91 2.12-12.59-3.27-4.49-6.57-3.55-14.51-3.48-22.9.14-17.8-10.23-9.21-12.18-13.72-2.14-2.99.97-6.92 4.27-7.95z"></path></g>
            <g transform="translate(-20 0)">
              <g class="leni-sleep">
                <path fill="#69b29a" d="M185.6 204.8l46.3.5 1.4 9.9s-4.7-3.8-4.7 3-42.1.3-42.1.3l-1.1-3.6z"></path>
                <path fill="#69b29a" stroke="#354156" stroke-miterlimit="10" stroke-width=".7" d="M225.1 220.8c1.4 7.3 2 11.8-4.2 11.2-5.5-.2-3.4-4-4.1-9-.1-1 0-2.3-.6-3-1.7-2.1-5.7-1-6 1.9s.6 5.7.2 8.5-9 3.6-8-1.9c1-6.2 0-8.6-2.6-8.3-3.8.9-4 2.8-3.4 7.3 1 8-8.6 7-7.7 1 .2-7 .3-3.3.5-10.4"></path>
                <path fill="#549b81" d="M196.3 227.3c0 5.3-2.2 6-4.3 5.7-3-.5-3-3.8-3-3.8 5.8 6.2 7.3-5 7.3-1.9zM209.8 222.6a68.1 68.1 0 01.5 7.8c0 2.8-8.4 3.5-7.3-1.8 0 0 5 7.7 6.8-6zM225 220.8c1 7 1.5 11.1-4.3 11.1-4 0-3.1-3.6-3.2-4.6 0 0 7.3 9.2 7.4-6.5zM188.7 210.6c.2 1 1.6 1.2 2.4 1a1.6 1.6 0 00.7-.1 1.3 1.3 0 00.5-1.1 2 2 0 00-1.8-1.9 1.8 1.8 0 00-1.8 2.1z"></path>
                <path fill="#69b29a" stroke="#354156" stroke-miterlimit="10" stroke-width=".7" d="M185.5 205.8s-14.4 10.8-9.9 17.5c3.5 5 18.1 3 37.6-4.4 4.9-1.9 14.5-3 12.3-8.8 0 0-4-7-14.7 3 0 0-17 5.2-24 5 0 0-6.5.8-1.3-3 0 0 1.2 3.1 1.3 2.7"></path>
                <path fill="#549b81" d="M175.5 218.6c.7 1 2.3.9 3.2 0a2.9 2.9 0 001-2.8c-.1-1.2-.7-1.7-1.8-2.4M206 211c.7.6 1.6 0 1.9-.8a1.3 1.3 0 00-1.3-1.7 1.5 1.5 0 00-.6 2.4z"></path>
                <path fill="none" stroke="#354156" stroke-miterlimit="10" stroke-width=".7" d="M185.5 205.8s-14.4 10.8-9.9 17.5M196.4 227.5c.9 8-8.7 7-7.7 1 0-1.8.2-2.6.2-2.6M225.1 220.8c1.4 7.3 2 11.8-4.2 11.2-5.5-.2-3.4-4-4.1-9-.1-1 0-2.3-.6-3-1.7-2.1-5.7-1-6 1.9s.6 5.7.2 8.5-9 3.6-8-1.9"></path>
                <path fill="#69b29a" stroke="#354156" stroke-miterlimit="10" stroke-width=".7" d="M228.6 217.5c-.2-3.4 2.1-1.6 2.1-1.6 3.7 3.4-4.9 2.4-4.9 2.4-6.8.3-21-6-21-6-9.8-9.1-13.8-2.7-13.8-2.7-3.2 5.6 8 7.5 12.9 9.3 17.6 6.7 34.3 10.2 37 2.8 2.6-7-9-16-9-16"></path>
                <path fill="#549b81" d="M184.6 224.3c.7.7 1.6.1 1.9-.7a1.3 1.3 0 00-1.3-1.7 1.5 1.5 0 00-.6 2.4zM230.3 212.2c.2 1 1.6 1.2 2.5 1.1a1.5 1.5 0 00.6-.2 1.3 1.3 0 00.5-1 2 2 0 00-1.8-2 1.8 1.8 0 00-1.8 2.1zM235.7 219.5a2.6 2.6 0 00.6 3.3 3.1 3.1 0 003.3.2 2.8 2.8 0 001.7-3.2 1.9 1.9 0 00-1.6-1.3c-.7-.2-3-.3-4 1zM216.8 223c.1-.8.8-2.1 1.6-2a2.5 2.5 0 012.3 1.7 7 7 0 01-.3 1.5 10 10 0 00-3.7-1.2z"></path>
                <path fill="none" stroke="#354156" stroke-miterlimit="10" stroke-width=".7" d="M191 209.6c-3.2 5.6 8 7.4 12.9 9.3 17.6 6.7 34.2 10.1 37 2.7 2.5-7-9-15.8-9-15.8"></path>
                <path fill="#3baacd" stroke="#354156" stroke-miterlimit="10" stroke-width=".7" d="M185.7 202.7c-9-16-9.7-19.3-13.6-27.7a50.2 50.2 0 01-6.2-30.3c1.1-11.9 10.5-30.2 44.7-30.8 50-.8 42.2 43.6 41 48-6.5 24.6-18.3 40.7-19.7 40.7l-46.2.1z" opacity=".3"></path><path fill="#69b29a" stroke="#354156" stroke-miterlimit="10" stroke-width=".7" d="M185.6 205.6c2.3-15.6-9.4-24.1-9-42.9 0-8.7 2.4-31.5 29.8-35.3 11.6-1.6 40.3 5 36.8 36.2-2.2 20.5-11 24-11.4 37.9v3.8"></path>
                <path fill="#549b81" d="M184.6 192.1s5.8-3.5 1.5-12c-1.3-2.6-5-4.9-7.4-3.7 0 0 3.8 10.9 6 15.7zM191 133s.6 4.4-1.6 7c-1 1.3-4.7 5.1-8.3 4.2A27.7 27.7 0 01191 133zM207.1 131.2c-.3 1.5 1.2 3 4.2 2 2.7-1 2.2-3.3 1.2-3.9-1.8-1-4.9-.2-5.4 1.8zM242.5 150.8s-5.6.7-7.3-4.7a10.7 10.7 0 011-7.6s5.6 6.1 6.3 12.3zM237.7 169.9a8.6 8.6 0 00-.8 6 8 8 0 002.5 2.8 105 105 0 003.4-11.4c-3 .3-4 1.1-5.1 2.6zM184.5 159.1a1.9 1.9 0 002.1 1.6 2 2 0 001.4-2.5 1.9 1.9 0 00-2.3-1.3 2 2 0 00-1.2 2.2M224.2 136a1.4 1.4 0 001.4 1.3 1.9 1.9 0 001.8-1 1.6 1.6 0 00-2-1.8 1.6 1.6 0 00-1.2 1.5z"></path><path fill="#f8f3dc" d="M174.2 137.8c-.1.7-1.5.5-2 .2-.8-.6-.1-2 .2-2.6a33.2 33.2 0 018.8-10.3 10.3 10.3 0 011.8-1.1c1.7-.8 3.6-2 4.5-1.6.6.3 1.3.6 1.3 1.3 0 1-2.6 1.6-3.8 2-3 1.4-6.7 4.5-9.8 10l-1 2.2zM171.6 145.6a13.6 13.6 0 01.9-4.2c0-.3.2-.6 0-.8a.6.6 0 00-.3-.1 6.6 6.6 0 00-1.5-.2.7.7 0 00-.4.1.8.8 0 00-.3.5 26 26 0 00-.5 3.4 1 1 0 000 .5.9.9 0 00.3.4 1.9 1.9 0 001.8.4"></path><path fill="#69b29a" d="M184.8 206.6c-1 0 13.6.6 24 .3a160.4 160.4 0 0126.4 2 33.3 33.3 0 00-3.7-3l-45.7.3s-1 .1-1 .4z" opacity=".2" style="mix-blend-mode:multiply"></path><path fill="#ffca30" stroke="#354156" stroke-miterlimit="10" stroke-width=".7" d="M232.2 202.6l-.3 3h-46.3l-.1-3h46.7z"></path><path fill="#69b29a" d="M252.2 156.8s-2 21.4-20.4 45.8c-.9 1.2-27-1-46.1.1l-2.7-4.9c15.4 6.4 62.2 1.1 69.2-41z" opacity=".2" style="mix-blend-mode:multiply"></path><path fill="none" stroke="#354156" stroke-miterlimit="10" stroke-width=".7" d="M185.7 202.7c-9-16-9.7-19.3-13.6-27.7a50.2 50.2 0 01-6.2-30.3c1.1-11.9 10.5-30.2 44.7-30.8 50-.8 42.2 43.6 41 48-6.5 24.6-18.3 40.7-19.7 40.7l-46.2.1z"></path><path fill="#354156" stroke="#354156" stroke-miterlimit="10" stroke-width=".7" d="M213.5 181.3a2.8 2.8 0 001.2 2.2 3.6 3.6 0 001.8.9 3.4 3.4 0 004-2.6 3 3 0 00-.4-1.7 3.4 3.4 0 00-2.6-2c-1.1-.2-4 .6-4 3.2z"></path><path fill="none" stroke="#354156" stroke-miterlimit="10" stroke-width=".7" d="M193.6 159.9s15.2 12.7 33.2-.2"></path><path fill="none" stroke="#f8f3dc" stroke-miterlimit="10" stroke-width=".7" d="M239 140.2a60.5 60.5 0 009.5-.3c-1.3 4-8 4.7-9.5 8.7h9.3M233.8 157h4.2c.8 0 3.6-.3 3.5.6-.1.5-2.3 1.5-2.8 1.8a22 22 0 00-5.3 3.5c2.8-.1 4.8.3 7.7 0M226 169c.8.6 5.5.5 5.5.5 0 1.8-5.6 3-5.6 4.8h5.4"></path><path fill="none" stroke="#354156" stroke-miterlimit="10" stroke-width=".7" d="M185.6 205.6c2.3-15.6-9.4-24.1-9-42.9 0-8.7 2.4-31.5 29.8-35.3 11.6-1.6 40.3 5 36.8 36.2-2.2 20.5-11 24-11.4 37.9v3.8"></path></g></g>
              </g>
            </g>
            </svg>